<svg width="41" height="41" viewBox="0 0 41 41" fill="none" xmlns="http://www.w3.org/2000/svg">
<rect width="40.3743" height="40.3743" rx="10" fill="#FAF3DD"/>
<path d="M19.6964 25.2305L25.7514 19.1755C24.7327 18.7502 23.8075 18.1288 23.0285 17.3466C22.2459 16.5674 21.6242 15.6419 21.1987 14.6228L15.1437 20.6778C14.6714 21.1502 14.4348 21.3868 14.2317 21.6471C13.9919 21.9544 13.7863 22.2868 13.6185 22.6386C13.4769 22.9366 13.3713 23.2542 13.1601 23.8879L12.045 27.2306C11.9937 27.3836 11.9861 27.548 12.023 27.7051C12.06 27.8622 12.14 28.006 12.2542 28.1201C12.3683 28.2342 12.512 28.3143 12.6692 28.3512C12.8263 28.3882 12.9906 28.3806 13.1437 28.3292L16.4864 27.2142C17.1209 27.003 17.4377 26.8974 17.7357 26.7557C18.0877 26.5879 18.4201 26.3824 18.7271 26.1425C18.9875 25.9395 19.2241 25.7029 19.6964 25.2305ZM27.4314 17.4956C28.0351 16.8919 28.3743 16.073 28.3743 15.2192C28.3743 14.3654 28.0351 13.5466 27.4314 12.9429C26.8276 12.3392 26.0088 12 25.155 12C24.3012 12 23.4824 12.3392 22.8787 12.9429L22.1525 13.6691L22.1836 13.7599C22.5415 14.7839 23.1271 15.7132 23.8963 16.478C24.6839 17.2702 25.6458 17.8674 26.7052 18.2218L27.4314 17.4956Z" fill="#F94F0D"/>
</svg>
