<svg width="54" height="44" viewBox="0 0 54 44" fill="none" xmlns="http://www.w3.org/2000/svg">
<rect width="54" height="44" rx="10" fill="#F94F0D"/>
<path d="M22.875 12.6692C22.5103 12.6692 22.1606 12.8096 21.9027 13.0596C21.6449 13.3096 21.5 13.6487 21.5 14.0022C21.5 14.3557 21.6449 14.6947 21.9027 14.9447C22.1606 15.1947 22.5103 15.3351 22.875 15.3351C23.2397 15.3351 23.5894 15.1947 23.8473 14.9447C24.1051 14.6947 24.25 14.3557 24.25 14.0022C24.25 13.6487 24.1051 13.3096 23.8473 13.0596C23.5894 12.8096 23.2397 12.6692 22.875 12.6692ZM18.9838 12.6692C19.2678 11.8887 19.7946 11.2128 20.4916 10.7348C21.1885 10.2567 22.0212 10 22.875 10C23.7288 10 24.5615 10.2567 25.2584 10.7348C25.9554 11.2128 26.4822 11.8887 26.7662 12.6692H36.625C36.9897 12.6692 37.3394 12.8096 37.5973 13.0596C37.8551 13.3096 38 13.6487 38 14.0022C38 14.3557 37.8551 14.6947 37.5973 14.9447C37.3394 15.1947 36.9897 15.3351 36.625 15.3351H26.7662C26.4822 16.1156 25.9554 16.7915 25.2584 17.2696C24.5615 17.7476 23.7288 18.0044 22.875 18.0044C22.0212 18.0044 21.1885 17.7476 20.4916 17.2696C19.7946 16.7915 19.2678 16.1156 18.9838 15.3351H17.375C17.0103 15.3351 16.6606 15.1947 16.4027 14.9447C16.1449 14.6947 16 14.3557 16 14.0022C16 13.6487 16.1449 13.3096 16.4027 13.0596C16.6606 12.8096 17.0103 12.6692 17.375 12.6692H18.9838ZM31.125 20.667C30.7603 20.667 30.4106 20.8075 30.1527 21.0574C29.8949 21.3074 29.75 21.6465 29.75 22C29.75 22.3535 29.8949 22.6926 30.1527 22.9426C30.4106 23.1925 30.7603 23.333 31.125 23.333C31.4897 23.333 31.8394 23.1925 32.0973 22.9426C32.3551 22.6926 32.5 22.3535 32.5 22C32.5 21.6465 32.3551 21.3074 32.0973 21.0574C31.8394 20.8075 31.4897 20.667 31.125 20.667ZM27.2338 20.667C27.5178 19.8865 28.0446 19.2107 28.7416 18.7326C29.4385 18.2545 30.2712 17.9978 31.125 17.9978C31.9788 17.9978 32.8115 18.2545 33.5084 18.7326C34.2054 19.2107 34.7322 19.8865 35.0163 20.667H36.625C36.9897 20.667 37.3394 20.8075 37.5973 21.0574C37.8551 21.3074 38 21.6465 38 22C38 22.3535 37.8551 22.6926 37.5973 22.9426C37.3394 23.1925 36.9897 23.333 36.625 23.333H35.0163C34.7322 24.1135 34.2054 24.7893 33.5084 25.2674C32.8115 25.7455 31.9788 26.0022 31.125 26.0022C30.2712 26.0022 29.4385 25.7455 28.7416 25.2674C28.0446 24.7893 27.5178 24.1135 27.2338 23.333H17.375C17.0103 23.333 16.6606 23.1925 16.4027 22.9426C16.1449 22.6926 16 22.3535 16 22C16 21.6465 16.1449 21.3074 16.4027 21.0574C16.6606 20.8075 17.0103 20.667 17.375 20.667H27.2338ZM22.875 28.6649C22.5103 28.6649 22.1606 28.8053 21.9027 29.0553C21.6449 29.3053 21.5 29.6443 21.5 29.9978C21.5 30.3513 21.6449 30.6904 21.9027 30.9404C22.1606 31.1904 22.5103 31.3308 22.875 31.3308C23.2397 31.3308 23.5894 31.1904 23.8473 30.9404C24.1051 30.6904 24.25 30.3513 24.25 29.9978C24.25 29.6443 24.1051 29.3053 23.8473 29.0553C23.5894 28.8053 23.2397 28.6649 22.875 28.6649ZM18.9838 28.6649C19.2678 27.8844 19.7946 27.2085 20.4916 26.7304C21.1885 26.2524 22.0212 25.9956 22.875 25.9956C23.7288 25.9956 24.5615 26.2524 25.2584 26.7304C25.9554 27.2085 26.4822 27.8844 26.7662 28.6649H36.625C36.9897 28.6649 37.3394 28.8053 37.5973 29.0553C37.8551 29.3053 38 29.6443 38 29.9978C38 30.3513 37.8551 30.6904 37.5973 30.9404C37.3394 31.1904 36.9897 31.3308 36.625 31.3308H26.7662C26.4822 32.1113 25.9554 32.7872 25.2584 33.2652C24.5615 33.7433 23.7288 34 22.875 34C22.0212 34 21.1885 33.7433 20.4916 33.2652C19.7946 32.7872 19.2678 32.1113 18.9838 31.3308H17.375C17.0103 31.3308 16.6606 31.1904 16.4027 30.9404C16.1449 30.6904 16 30.3513 16 29.9978C16 29.6443 16.1449 29.3053 16.4027 29.0553C16.6606 28.8053 17.0103 28.6649 17.375 28.6649H18.9838Z" fill="#F9F9F9"/>
</svg>
