<svg width="45" height="44" viewBox="0 0 45 44" fill="none" xmlns="http://www.w3.org/2000/svg">
<g filter="url(#filter0_b_9_64)">
<rect x="0.514648" y="-3.05176e-05" width="44" height="44" rx="10" fill="#FAF3DD"/>
<path fill-rule="evenodd" clip-rule="evenodd" d="M29.5165 23.3167C29.8146 23.4751 30.0445 23.7251 30.2063 23.9751C30.5214 24.4917 30.4959 25.1251 30.1893 25.6834L29.5932 26.6834C29.2781 27.2167 28.6904 27.5501 28.0858 27.5501C27.7877 27.5501 27.4556 27.4667 27.1831 27.3001C26.9616 27.1584 26.7061 27.1084 26.4336 27.1084C25.5905 27.1084 24.8836 27.8001 24.8581 28.6251C24.8581 29.5834 24.0746 30.3334 23.0952 30.3334H21.937C20.9491 30.3334 20.1656 29.5834 20.1656 28.6251C20.1486 27.8001 19.4417 27.1084 18.5986 27.1084C18.3176 27.1084 18.0621 27.1584 17.8492 27.3001C17.5767 27.4667 17.236 27.5501 16.9464 27.5501C16.3333 27.5501 15.7456 27.2167 15.4305 26.6834L14.8429 25.6834C14.5278 25.1417 14.5108 24.4917 14.8259 23.9751C14.9621 23.7251 15.2176 23.4751 15.5072 23.3167C15.7456 23.2001 15.8989 23.0084 16.0437 22.7834C16.4695 22.0667 16.214 21.1251 15.4902 20.7001C14.647 20.2251 14.3745 19.1667 14.8599 18.3417L15.4305 17.3584C15.9245 16.5334 16.9805 16.2417 17.8321 16.7251C18.5731 17.1251 19.5354 16.8584 19.9697 16.1501C20.106 15.9167 20.1826 15.6667 20.1656 15.4167C20.1486 15.0917 20.2423 14.7834 20.4041 14.5334C20.7192 14.0167 21.2898 13.6834 21.9115 13.6667H23.1123C23.7425 13.6667 24.3131 14.0167 24.6282 14.5334C24.7815 14.7834 24.8836 15.0917 24.8581 15.4167C24.8411 15.6667 24.9177 15.9167 25.054 16.1501C25.4883 16.8584 26.4506 17.1251 27.2001 16.7251C28.0432 16.2417 29.1077 16.5334 29.5932 17.3584L30.1638 18.3417C30.6577 19.1667 30.3852 20.2251 29.5336 20.7001C28.8097 21.1251 28.5542 22.0667 28.9885 22.7834C29.1248 23.0084 29.2781 23.2001 29.5165 23.3167ZM20.106 22.0085C20.106 23.3168 21.1875 24.3585 22.5246 24.3585C23.8617 24.3585 24.9177 23.3168 24.9177 22.0085C24.9177 20.7001 23.8617 19.6501 22.5246 19.6501C21.1875 19.6501 20.106 20.7001 20.106 22.0085Z" fill="#F94F0D"/>
</g>
<defs>
<filter id="filter0_b_9_64" x="-4.48535" y="-5.00003" width="54" height="54" filterUnits="userSpaceOnUse" color-interpolation-filters="sRGB">
<feFlood flood-opacity="0" result="BackgroundImageFix"/>
<feGaussianBlur in="BackgroundImageFix" stdDeviation="2.5"/>
<feComposite in2="SourceAlpha" operator="in" result="effect1_backgroundBlur_9_64"/>
<feBlend mode="normal" in="SourceGraphic" in2="effect1_backgroundBlur_9_64" result="shape"/>
</filter>
</defs>
</svg>
